<svg width="98" height="97" viewBox="0 0 98 97" fill="none" xmlns="http://www.w3.org/2000/svg">
<path fill-rule="evenodd" clip-rule="evenodd" d="M45.027 91.4705L0.850006 70.6349V59.7641L22.9385 70.6349L45.027 81.5056L70.9385 68.8231L96.85 56.1405V66.1054L45.027 91.4705Z" fill="#6366F1"/>
<path d="M1.16104 75.3111L45.027 96V91.4705L0.850006 70.6349V74.8124C0.850006 75.0269 0.971511 75.2217 1.16104 75.3111Z" fill="#D9D9D9"/>
<path d="M45.027 81.5056L70.9385 68.8231L96.85 56.1405L51.2118 33.6105C51.0619 33.5365 50.887 33.5386 50.7388 33.6163L0.850006 59.7641L22.9385 70.6349L45.027 81.5056Z" fill="white"/>
<path d="M96.85 66.1054V70.2884C96.85 70.5 96.7316 70.6928 96.5458 70.7837L45.027 96L1.16104 75.3111C0.971511 75.2217 0.850006 75.0269 0.850006 74.8124V70.6349M45.027 96V91.4705M45.027 81.5056V91.4705M45.027 81.5056L22.9385 70.6349L0.850006 59.7641M45.027 81.5056L70.9385 68.8231L96.85 56.1405M0.850006 70.6349V59.7641L50.7388 33.6163C50.887 33.5386 51.0619 33.5365 51.2118 33.6105L96.85 56.1405V66.1054M45.027 91.4705L96.85 66.1054M45.027 91.4705L0.850006 70.6349" stroke="#6366F1" stroke-width="1.7"/>
<path d="M55.7833 15.9086C55.7833 24.6946 48.8587 31.8171 40.3167 31.8171C31.7747 31.8171 24.85 24.6946 24.85 15.9086C24.85 7.12251 31.7747 0 40.3167 0C48.8587 0 55.7833 7.12251 55.7833 15.9086Z" fill="#D9D9D9"/>
<path d="M55.7833 15.9086C55.7833 24.6946 48.8587 31.8171 40.3167 31.8171C31.7747 31.8171 24.85 24.6946 24.85 15.9086C24.85 7.12251 31.7747 0 40.3167 0C48.8587 0 55.7833 7.12251 55.7833 15.9086Z" fill="#6366F1"/>
<ellipse cx="60.3187" cy="49.5013" rx="10.1947" ry="6.34129" fill="#6366F1"/>
<ellipse cx="39.9295" cy="57.9523" rx="10.1947" ry="6.34129" fill="#6366F1"/>
<path d="M36.7017 59.7642V30.7755M43.4982 59.7642V30.7755" stroke="#6366F1" stroke-width="0.7"/>
<path d="M60.3194 43.0957C64.0561 43.0959 67.0655 45.5171 67.0655 48.4814C67.0654 51.4457 64.0561 53.866 60.3194 53.8662C56.5825 53.8662 53.5724 51.4458 53.5723 48.4814C53.5723 45.517 56.5824 43.0957 60.3194 43.0957Z" fill="#6366F1" stroke="white" stroke-width="0.1"/>
</svg>
